# xmcd CD database file
#
# Track frame offsets:
#	150
#	23316
#	43541
#	70592
#	94934
#	110269
#	126719
#	143659
#	160659
#	174589
#	191462
#
# Disc length: 2837 seconds
#
# Revision: 3
# Processed by: cddbd v1.5.2PL0 Copyright (c) Steve Scherf et al.
# Submitted via: CDex 1.51
#
DISCID=880b130b
DTITLE=Tracy Chapman - Where You Live
DYEAR=2005
DGENRE=Blues
TTITLE0=Change
TTITLE1=TalkTo You
TTITLE2=3,000 Miles
TTITLE3=Going Back
TTITLE4=Don't Dwell
TTITLE5=Never Yours
TTITLE6=America
TTITLE7=Love's Proof
TTITLE8=Before Easter
TTITLE9=Taken
TTITLE10=Be And Be Not Afraid
EXTD=YEAR: 2005
EXTT0=
EXTT1=
EXTT2=
EXTT3=
EXTT4=
EXTT5=
EXTT6=
EXTT7=
EXTT8=
EXTT9=
EXTT10=
PLAYORDER=
